<?xml version="1.0" standalone="no"?>
<!DOCTYPE svg PUBLIC "-//W3C//DTD SVG 20010904//EN"
 "http://www.w3.org/TR/2001/REC-SVG-20010904/DTD/svg10.dtd">
<svg version="1.0" xmlns="http://www.w3.org/2000/svg"
 width="498.000000pt" height="501.000000pt" viewBox="0 0 498.000000 501.000000"
 preserveAspectRatio="xMidYMid meet">

<g transform="translate(0.000000,501.000000) scale(0.100000,-0.100000)"
fill="#000000" stroke="none">
<path d="M2270 4994 c-107 -13 -260 -36 -290 -44 -19 -5 -73 -19 -120 -30
-243 -59 -588 -218 -785 -362 -210 -155 -427 -362 -555 -533 -255 -338 -415
-706 -487 -1120 -25 -144 -25 -656 0 -800 119 -679 472 -1239 1042 -1653 117
-84 191 -125 470 -257 126 -60 420 -140 615 -167 145 -20 546 -17 690 5 192
30 468 106 585 162 279 132 359 176 470 257 5 5 35 26 65 48 186 136 407 363
548 562 50 71 143 221 165 266 13 26 29 56 35 67 52 87 150 361 190 532 52
218 65 362 59 642 -3 188 -9 273 -25 361 -115 635 -455 1191 -967 1577 -73 55
-139 99 -190 129 -11 6 -56 32 -99 57 -221 128 -551 241 -829 283 -98 15 -508
27 -587 18z m585 -228 c309 -59 552 -147 780 -284 77 -47 157 -98 172 -112 7
-5 27 -20 45 -33 97 -66 267 -226 369 -347 48 -56 74 -92 166 -220 76 -105
205 -363 243 -485 7 -22 16 -44 20 -50 14 -19 80 -293 97 -401 23 -153 23
-498 0 -656 -40 -273 -126 -529 -254 -763 -48 -87 -157 -260 -173 -275 -3 -3
-32 -39 -65 -80 -122 -154 -313 -329 -515 -470 -33 -23 -258 -150 -266 -150
-2 0 -32 -13 -66 -29 -165 -78 -417 -149 -624 -176 -147 -19 -446 -19 -590 -1
-202 27 -448 96 -612 172 -41 19 -75 34 -77 34 -7 0 -240 131 -245 138 -3 5
-23 19 -45 32 -155 94 -347 275 -544 515 -52 64 -241 377 -241 400 0 3 -14 33
-30 67 -17 33 -37 86 -46 117 -9 31 -20 61 -24 66 -8 12 -42 137 -69 255 -34
147 -45 269 -45 475 0 207 11 329 45 475 30 132 60 244 69 255 4 6 15 35 24
65 10 30 31 83 47 118 16 35 29 66 29 68 0 20 204 360 230 384 3 3 32 39 65
80 121 153 358 370 490 450 22 13 42 27 45 32 6 7 238 138 246 138 2 0 36 15
76 34 150 69 333 123 543 161 124 22 144 23 405 20 165 -3 271 -9 325 -19z"/>
<path d="M1035 3644 c-62 -31 -110 -76 -138 -129 l-22 -40 0 -970 0 -970 22
-41 c12 -23 43 -60 68 -82 88 -77 -29 -72 1567 -72 l1428 0 64 29 c71 32 127
94 149 165 9 32 12 258 12 981 0 862 -1 943 -17 977 -30 68 -79 117 -144 148
l-62 30 -1438 0 -1439 -1 -50 -25z m2805 -183 c0 -5 -12 -19 -27 -31 -16 -12
-55 -47 -89 -78 -80 -76 -169 -158 -289 -267 -55 -49 -126 -115 -160 -146 -84
-78 -313 -287 -424 -389 -52 -47 -106 -96 -121 -110 -87 -82 -152 -119 -205
-120 -55 0 -134 55 -295 206 -49 45 -241 221 -545 498 -55 50 -131 120 -170
156 -39 36 -119 110 -179 165 -59 55 -112 102 -117 103 -50 19 132 22 1306 22
801 0 1315 -4 1315 -9z m-2709 -233 c87 -80 234 -214 299 -273 36 -33 85 -78
110 -100 25 -23 74 -68 110 -100 87 -78 239 -216 262 -238 11 -10 18 -22 16
-26 -2 -4 -70 -69 -153 -145 -82 -76 -157 -146 -165 -155 -16 -17 -105 -101
-305 -286 -72 -66 -144 -133 -161 -150 -17 -16 -41 -39 -53 -49 l-21 -19 0
791 c0 436 3 792 8 792 4 0 28 -19 53 -42z m2844 -1527 c-3 -3 -16 6 -29 19
-12 14 -65 63 -116 110 -51 47 -103 94 -114 106 -12 11 -88 83 -171 159 -149
138 -184 171 -343 322 l-84 79 94 84 c51 46 120 109 154 140 33 30 87 80 120
110 138 126 242 220 283 256 25 22 54 49 65 60 12 12 48 44 81 72 l60 52 3
-782 c1 -430 0 -784 -3 -787z m-1854 606 c85 -84 169 -145 234 -173 63 -26 80
-29 175 -28 153 1 226 35 375 175 26 24 52 47 59 51 9 5 72 -47 178 -145 91
-84 202 -186 248 -227 45 -41 99 -91 119 -110 21 -19 79 -73 130 -120 52 -47
119 -109 149 -137 l56 -53 -1312 0 c-822 0 -1312 4 -1312 10 0 5 6 13 14 17 8
4 46 37 83 73 38 36 114 106 168 155 55 50 111 101 126 115 14 14 48 45 75 69
86 78 277 254 334 308 30 29 58 53 61 53 4 0 22 -15 40 -33z"/>
</g>
</svg>
